<svg xmlns="http://www.w3.org/2000/svg" xmlns:xlink="http://www.w3.org/1999/xlink" viewBox="0 0 436.09 389.4"><defs><style>.cls-1{fill:#37b8f1;}.cls-2{fill:url(#Безымянный_градиент_4);}.cls-3{fill:#8739f9;}</style><linearGradient id="Безымянный_градиент_4" x1="168.41" y1="132.73" x2="217.15" y2="83.99" gradientUnits="userSpaceOnUse"><stop offset="0" stop-color="#37b8f1"/><stop offset="1" stop-color="#8739f9"/></linearGradient></defs><title>Ресурс 1</title><g id="Слой_2" data-name="Слой 2"><g id="Слой_1-2" data-name="Слой 1"><path class="cls-1" d="M1.07,11.83,28.59,59.47a7.88,7.88,0,0,0,13.65,0L69.76,11.83A7.88,7.88,0,0,0,62.93,0H7.9A7.89,7.89,0,0,0,1.07,11.83Z"/><path class="cls-1" d="M336.9,11.83l27.52,47.64a7.88,7.88,0,0,0,13.65,0l27.52-47.64A7.88,7.88,0,0,0,398.76,0h-55A7.89,7.89,0,0,0,336.9,11.83Z"/><path class="cls-2" d="M186.66,142.7l47.64-27.52a7.88,7.88,0,0,0,0-13.65L186.66,74a7.89,7.89,0,0,0-11.83,6.83v55A7.88,7.88,0,0,0,186.66,142.7Z"/><path class="cls-3" d="M372.62,206.17l-27.51-47.64a7.89,7.89,0,0,0-13.66,0l-27.52,47.64A7.89,7.89,0,0,0,310.76,218h55A7.88,7.88,0,0,0,372.62,206.17Z"/><path class="cls-3" d="M24.06,311.49,71.7,284a7.89,7.89,0,0,0,0-13.66L24.06,242.79a7.89,7.89,0,0,0-11.83,6.83v55A7.89,7.89,0,0,0,24.06,311.49Z"/><path class="cls-3" d="M209,377.57,181.5,329.93a7.88,7.88,0,0,0-13.65,0l-27.52,47.64a7.89,7.89,0,0,0,6.83,11.83h55A7.89,7.89,0,0,0,209,377.57Z"/><path class="cls-3" d="M435,377.57,407.5,329.93a7.88,7.88,0,0,0-13.65,0l-27.52,47.64a7.89,7.89,0,0,0,6.83,11.83h55A7.89,7.89,0,0,0,435,377.57Z"/></g></g></svg>