<svg xmlns="http://www.w3.org/2000/svg" xmlns:xlink="http://www.w3.org/1999/xlink" viewBox="0 0 330.54 389.4"><defs><style>.cls-1{fill:#8739f9;}.cls-2{fill:#37b8f1;}.cls-3{fill:url(#Безымянный_градиент_4);}.cls-4{fill:url(#Безымянный_градиент_4-2);}</style><linearGradient id="Безымянный_градиент_4" x1="191.81" y1="243.96" x2="191.81" y2="314.79" gradientUnits="userSpaceOnUse"><stop offset="0" stop-color="#37b8f1"/><stop offset="1" stop-color="#8739f9"/></linearGradient><linearGradient id="Безымянный_градиент_4-2" x1="62.4" y1="357.7" x2="133.23" y2="357.7" xlink:href="#Безымянный_градиент_4"/></defs><title>Ресурс 2</title><g id="Слой_2" data-name="Слой 2"><g id="Слой_1-2" data-name="Слой 1"><path class="cls-1" d="M260.78,11.83,288.3,59.47a7.88,7.88,0,0,0,13.65,0l27.52-47.64A7.89,7.89,0,0,0,322.64,0h-55A7.88,7.88,0,0,0,260.78,11.83Z"/><path class="cls-1" d="M109.54,142.32l47.64-27.52a7.89,7.89,0,0,0,0-13.66L109.54,73.63a7.88,7.88,0,0,0-11.83,6.82v55A7.89,7.89,0,0,0,109.54,142.32Z"/><path class="cls-1" d="M69.76,206.17,42.24,158.53a7.88,7.88,0,0,0-13.65,0L1.07,206.17A7.89,7.89,0,0,0,7.9,218h55A7.88,7.88,0,0,0,69.76,206.17Z"/><path class="cls-2" d="M295.5,206.17,268,158.53a7.88,7.88,0,0,0-13.65,0l-27.52,47.64A7.89,7.89,0,0,0,233.64,218h55A7.88,7.88,0,0,0,295.5,206.17Z"/><path class="cls-3" d="M171.94,313.72l47.64-27.52a7.88,7.88,0,0,0,0-13.65L171.94,245a7.88,7.88,0,0,0-11.83,6.82v55A7.89,7.89,0,0,0,171.94,313.72Z"/><path class="cls-4" d="M132.16,377.57l-27.52-47.64a7.88,7.88,0,0,0-13.65,0L63.47,377.57a7.88,7.88,0,0,0,6.82,11.83h55A7.89,7.89,0,0,0,132.16,377.57Z"/></g></g></svg>