<svg xmlns="http://www.w3.org/2000/svg" xmlns:xlink="http://www.w3.org/1999/xlink" viewBox="0 0 463.81 389.4"><defs><style>.cls-1{fill:#8739f9;}.cls-2{fill:url(#Безымянный_градиент_4);}.cls-3{fill:#37b8f1;}.cls-4{fill:url(#Безымянный_градиент_4-2);}</style><linearGradient id="Безымянный_градиент_4" y1="105.74" x2="63.41" y2="105.74" gradientUnits="userSpaceOnUse"><stop offset="0" stop-color="#37b8f1"/><stop offset="1" stop-color="#8739f9"/></linearGradient><linearGradient id="Безымянный_градиент_4-2" x1="400.4" y1="279.76" x2="463.81" y2="279.76" xlink:href="#Безымянный_градиент_4"/></defs><title>Ресурс 3</title><g id="Слой_2" data-name="Слой 2"><g id="Слой_1-2" data-name="Слой 1"><path class="cls-1" d="M163.07,11.83l27.52,47.64a7.88,7.88,0,0,0,13.65,0l27.52-47.64A7.89,7.89,0,0,0,224.93,0h-55A7.88,7.88,0,0,0,163.07,11.83Z"/><path class="cls-1" d="M349.83,142.7l47.64-27.52a7.88,7.88,0,0,0,0-13.65L349.83,74A7.89,7.89,0,0,0,338,80.84v55A7.88,7.88,0,0,0,349.83,142.7Z"/><path class="cls-2" d="M11.83,140.09l47.64-27.52a7.89,7.89,0,0,0,0-13.66L11.83,71.39A7.89,7.89,0,0,0,0,78.22v55A7.89,7.89,0,0,0,11.83,140.09Z"/><path class="cls-3" d="M196.79,206.17l-27.52-47.64a7.88,7.88,0,0,0-13.65,0L128.1,206.17A7.89,7.89,0,0,0,134.93,218h55A7.88,7.88,0,0,0,196.79,206.17Z"/><path class="cls-1" d="M299.23,314.11l47.64-27.52a7.89,7.89,0,0,0,0-13.66l-47.64-27.52a7.89,7.89,0,0,0-11.83,6.83v55A7.89,7.89,0,0,0,299.23,314.11Z"/><path class="cls-4" d="M412.23,314.11l47.64-27.52a7.89,7.89,0,0,0,0-13.66l-47.64-27.52a7.89,7.89,0,0,0-11.83,6.83v55A7.89,7.89,0,0,0,412.23,314.11Z"/><path class="cls-3" d="M372.19,377.57l-27.52-47.64a7.88,7.88,0,0,0-13.65,0L303.5,377.57a7.88,7.88,0,0,0,6.82,11.83h55A7.89,7.89,0,0,0,372.19,377.57Z"/></g></g></svg>