<?xml version="1.0" encoding="utf-8"?>
<!-- Generator: Adobe Illustrator 24.0.0, SVG Export Plug-In . SVG Version: 6.00 Build 0)  -->
<svg version="1.1" id="Слой_1" xmlns="http://www.w3.org/2000/svg" xmlns:xlink="http://www.w3.org/1999/xlink" x="0px" y="0px"
	 viewBox="0 0 24 24" style="enable-background:new 0 0 24 24;" xml:space="preserve">
<style type="text/css">
	.st0{fill:url(#SVGID_1_);}
</style>
<linearGradient id="SVGID_1_" gradientUnits="userSpaceOnUse" x1="5.0002" y1="12.0123" x2="19" y2="12.0123">
	<stop  offset="0" style="stop-color:#8739F9"/>
	<stop  offset="1" style="stop-color:#37B8F1"/>
</linearGradient>
<path class="st0" d="M19,12c0,0.6-0.4,1-1,1H8.4l1.3,1.3c0.4,0.4,0.4,1,0,1.4s-1,0.4-1.4,0c0,0,0,0,0,0l-3-3c-0.4-0.4-0.4-1,0-1.4
	l3-3c0.4-0.4,1-0.4,1.4,0c0.4,0.4,0.4,1,0,1.4L8.4,11H18C18.6,11,19,11.4,19,12z"/>
</svg>
