<svg xmlns="http://www.w3.org/2000/svg" viewBox="0 0 52.08 67.55"><defs><style>.cls-1{fill:#8739f9;}</style></defs><title>Ресурс 1</title><g id="Слой_2"><g id="Слой_1-2"><path class="cls-1" d="M12.72,0a28.86,28.86,0,0,1,3.92,1.25,11.26,11.26,0,0,1,4.3,16.38l-.34.45c-.12-.36-.23-.65-.33-.94-.43-1.24-.88-2.48-1.3-3.73a2,2,0,0,1-.08-.88,7.21,7.21,0,0,0-3.14-7.28,7,7,0,0,0-7.84-.38,7,7,0,0,0-3.8,6.94A7.22,7.22,0,0,0,7.34,17.5a1.48,1.48,0,0,1,.52.77c.38,1.32.72,2.65,1.09,4.08a9.53,9.53,0,0,1-3.5-1.42A11.33,11.33,0,0,1,9.91.13,3.06,3.06,0,0,0,10.34,0Z"/><path class="cls-1" d="M32.15,67.55c-.89-2-2.67-3-4.53-3.75-.68-.3-1.38-.57-2.08-.82a25.7,25.7,0,0,1-6.86-3.74,19.56,19.56,0,0,0-8-4.08c-1.91-.38-3.86-.54-5.8-.75-.9-.09-1.82,0-2.7-.13C.27,53.94-.45,52.49.28,50.72A5.58,5.58,0,0,1,6,47.38c1.8.13,3.57.49,5.36.72a10.17,10.17,0,0,0,5.38-.47,2.08,2.08,0,0,0,1.47-2.51,74.58,74.58,0,0,0-2.49-9.56c-1.73-6-3.54-12-5.23-18a18.73,18.73,0,0,1-.6-4.29,2.6,2.6,0,0,1,2.49-2.93,2.33,2.33,0,0,1,2.23.89,13,13,0,0,1,2,3.24c1.12,3.28,2,6.63,3,10,.44,1.45.88,2.89,1.34,4.34a3.81,3.81,0,0,0,.38.91,5.77,5.77,0,0,0,.57.65,5.06,5.06,0,0,0,.39-.77,2.9,2.9,0,0,0,.09-.72,2.58,2.58,0,0,1,2.87-2.74,3.48,3.48,0,0,1,2.46.93c1,.85,1.26.78,1.79-.45a8.37,8.37,0,0,1,.48-1,3,3,0,0,1,4.54-.92c.44.32.84.7,1.26,1,.75.63,1.19.64,1.8-.09,1.32-1.55,2.32-1.92,4.56-.56a15.27,15.27,0,0,1,5.34,6.07,42,42,0,0,1,4.49,15.06c.43,3.55-.2,7-.84,10.47a15,15,0,0,0,0,3.14c0,.34,0,.55-.35.69q-9.21,3.48-18.41,7Z"/></g></g></svg>