<?xml version="1.0" encoding="utf-8"?>
<!-- Generator: Adobe Illustrator 24.0.0, SVG Export Plug-In . SVG Version: 6.00 Build 0)  -->
<svg version="1.1" id="Слой_1" xmlns="http://www.w3.org/2000/svg" xmlns:xlink="http://www.w3.org/1999/xlink" x="0px" y="0px"
	 viewBox="0 0 30 30" style="enable-background:new 0 0 30 30;" xml:space="preserve">
<style type="text/css">
	.st0{fill:url(#SVGID_1_);}
</style>
<title></title>
<linearGradient id="SVGID_1_" gradientUnits="userSpaceOnUse" x1="0.6391" y1="29.3588" x2="29.3562" y2="0.6417">
	<stop  offset="0" style="stop-color:#7752F7"/>
	<stop  offset="1" style="stop-color:#44A3F2"/>
</linearGradient>
<path class="st0" d="M25.6,25.6h-4.4v-7c0-1.7,0-3.8-2.3-3.8c-2.3,0-2.7,1.8-2.7,3.7v7.1h-4.4V11.3H16v2H16c0.6-1.1,2-2.3,4.2-2.3
	c4.5,0,5.3,3,5.3,6.8L25.6,25.6L25.6,25.6z M6.7,9.3c-1.4,0-2.6-1.2-2.6-2.6c0-1.4,1.2-2.6,2.6-2.6c1.4,0,2.6,1.2,2.6,2.6
	C9.3,8.1,8.1,9.3,6.7,9.3z M8.9,25.6H4.4V11.3h4.5V25.6z M27.8,0H2.2C1,0,0,1,0,2.2v25.7C0,29,1,30,2.2,30h25.6c1.2,0,2.2-1,2.2-2.2
	V2.2C30,1,29,0,27.8,0L27.8,0z"/>
</svg>
