<svg xmlns="http://www.w3.org/2000/svg" viewBox="0 0 249.71 248.51"><title>Ресурс 2</title><g id="Слой_2"><g id="Слой_1-2"><path d="M0,116.45c.45-3.94.78-7.9,1.35-11.82q7.7-52.26,50-83.88A127.5,127.5,0,0,1,92.66.42c3.9-1.13,7.68,0,9.78,3s2.14,6.77-.55,10.13a88.42,88.42,0,0,0-16.72,33C79.35,68.67,80.91,90.21,90.5,111c10,21.73,26.19,37.37,48.08,46.88a91.76,91.76,0,0,0,50.78,6.66,93,93,0,0,0,45.32-20c2.54-2,5.21-3.64,8.68-2.89,4.58,1,7.2,4.91,6.11,9.47a126.77,126.77,0,0,1-11.79,31.1,124.35,124.35,0,0,1-39.14,43.72c-14.56,10-30.45,17.1-47.86,20.24C109,253.64,72.18,243.43,40.77,215c-20-18.1-32.54-40.7-38.09-67.1C1.59,142.67,1.18,137.3.44,132c-.11-.79-.29-1.58-.44-2.37Z"/></g></g></svg>