<svg xmlns="http://www.w3.org/2000/svg" viewBox="0 0 359.39 359.31"><defs><style>.cls-1{fill:#fff;}</style></defs><title>Ресурс 1</title><g id="Слой_2"><g id="Слой_1-2"><path class="cls-1" d="M77.74,179.71c0-56.2,45.44-101.81,101.46-101.86a102.1,102.1,0,0,1,102.22,102c.07,56-45.86,101.72-102.16,101.64A101.74,101.74,0,0,1,77.74,179.71Z"/><path class="cls-1" d="M64.91,47.26c4.93.23,9.2,1.72,12.65,5.13C83.41,58.17,89.33,63.91,95,69.86A17.88,17.88,0,0,1,70,95.39c-6.19-5.78-12.2-11.79-18-18C46.77,71.77,45.65,65,48.8,58,51.89,51.05,57.6,47.75,64.91,47.26Z"/><path class="cls-1" d="M47.15,294.72a18.4,18.4,0,0,1,5.31-13.34c5.62-5.67,11.18-11.4,16.95-16.91,7.59-7.24,18.46-7.12,25.51,0s6.89,18-.4,25.52c-5.66,5.81-11.3,11.64-17.24,17.15-5.64,5.23-12.38,6.37-19.43,3.23C51,307.34,47.57,301.67,47.15,294.72Z"/><path class="cls-1" d="M258.86,279c.5-9.53,4-15.15,10.83-18.24s13.39-2.18,18.84,2.78c6.62,6,13,12.41,19,19,6.24,6.81,5.63,17.52-.84,24.12s-16.91,7.49-23.77,1.42A227.75,227.75,0,0,1,263,288C260.5,285.17,259.71,280.93,258.86,279Z"/><path class="cls-1" d="M259,83.06c.08-5.73,1.8-9.92,5.18-13.35,5.69-5.77,11.33-11.59,17.21-17.17,7.43-7,18.29-6.91,25.25.06s7,18.1-.19,25.53c-5.64,5.82-11.31,11.62-17.23,17.16-5.61,5.26-12.31,6.5-19.39,3.39A17.13,17.13,0,0,1,259,83.06Z"/><path class="cls-1" d="M161.64,329.38c0-4,0-8,0-12,.17-9.94,7.69-17.71,17.31-18a17.8,17.8,0,0,1,18.47,17.21c.36,8.45.35,16.95,0,25.41A17.83,17.83,0,0,1,179,359.3c-9.64-.25-17.16-8-17.33-17.95C161.59,337.36,161.64,333.37,161.64,329.38Z"/><path class="cls-1" d="M161.64,29.92c0-4,0-8,0-12C161.83,8,169.35.26,179,0a17.81,17.81,0,0,1,18.46,17.21c.34,8.46.35,17,0,25.41A17.85,17.85,0,0,1,179,59.86c-9.78-.28-17.2-8.1-17.33-18.35C161.6,37.65,161.64,33.79,161.64,29.92Z"/><path class="cls-1" d="M329.37,197.63c-4.11,0-8.23.09-12.34,0a17.92,17.92,0,0,1-.19-35.83c8.34-.2,16.7-.18,25.05,0a17.93,17.93,0,0,1-.18,35.85C337.6,197.71,333.49,197.63,329.37,197.63Z"/><path class="cls-1" d="M29.72,197.62c-4.12,0-8.23.11-12.34,0a17.93,17.93,0,0,1,0-35.84q12.53-.27,25.05,0a17.93,17.93,0,0,1,0,35.84C38.19,197.73,34,197.62,29.72,197.62Z"/></g></g></svg>