<svg xmlns="http://www.w3.org/2000/svg" viewBox="0 0 800 703.33"><defs><style>.cls-1{fill:url(#Безымянный_градиент_18);}</style><linearGradient id="Безымянный_градиент_18" y1="351.66" x2="800" y2="351.66" gradientUnits="userSpaceOnUse"><stop offset="0" stop-color="#8739f9"/><stop offset="0.99" stop-color="#37b8f1"/></linearGradient></defs><title>Ресурс 1</title><g id="Слой_2"><g id="Capa_1"><path class="cls-1" d="M735.38,65.3a221.5,221.5,0,0,0-313.25.17L400.25,87.34,378,65.13A221.25,221.25,0,0,0,0,221.5C0,280.69,23.24,336.15,65.13,378l318.5,318.5a22.72,22.72,0,0,0,32.23.17L735,378.71a221.9,221.9,0,0,0,.34-313.41Zm-32.56,281L399.75,648.21,97.35,345.81A175.57,175.57,0,1,1,345.64,97.52L384,135.85a22.83,22.83,0,0,0,32.4,0l38-38A175.69,175.69,0,0,1,702.82,346.32Z"/></g></g></svg>